<?xml version="1.0" encoding="utf-8"?>

<!-- green: #17BF00 -->
<!-- slow: #FF9E19 -->
<!-- red: #F33131 -->
<!-- jam: #C21F1F -->

<!-- Generator: Adobe Illustrator 16.0.0, SVG Export Plug-In . SVG Version: 6.00 Build 0)  -->
<!DOCTYPE svg PUBLIC "-//W3C//DTD SVG 1.1//EN" "http://www.w3.org/Graphics/SVG/1.1/DTD/svg11.dtd">
<svg version="1.1" id="图层_1" xmlns="http://www.w3.org/2000/svg" xmlns:xlink="http://www.w3.org/1999/xlink" x="0px" y="0px"
	 width="566.93px" height="566.93px" viewBox="0 0 566.93 566.93" enable-background="new 0 0 566.93 566.93" xml:space="preserve">
<rect x="88" y="44.11" fill="#4D7FC1" width="391" height="478"/>
<g id="roadmap-1" fill="#17BF00">
<polygon points="271,116.61 258.5,122.861 263,122.861 263,187 279,187 279,122.861 283.34,122.861 "/>
</g>
<g id="roadmap-2" fill="#17BF00">
<polygon points="281,177.445 281,194.778 310.333,165.778 310.333,157.445 301,157.445 "/>
</g>
<g id="roadmap-3" fill="#17BF00">
<path d="M281,205.442v13c0,0,17.667-7.667,21,7c3.565,15.69-21,15.667-21,15.667v11.667
	c12.426-0.154,35.88-1.264,33.199-27.668C311.657,200.072,281,205.442,281,205.442z"/>
</g>
<g id="roadmap-4" fill="#17BF00">
<polygon points="260,239.442 260,253.288 212.333,253.288 212.333,259.442 188.333,246.442 213,234.109 
	213.333,239.109 "/>
</g>
<g id="roadmap-5" fill="#17BF00">
<path d="M281,289.441v25.332c0,0,9-18.666,23.667-25.332c20.494-9.315,34.666-6.332,34.666-6.332v5.998l27-14
	l-26-13.667L340,267.774c0,0-26.919-0.114-38.252,5.553C288.239,280.082,281,289.441,281,289.441z"/>
</g>
<g id="roadmap-6" fill="#17BF00">
<polygon points="281,362.773 281,380.107 310.333,351.107 310.333,342.773 301,342.773 "/>
</g>
<text transform="matrix(1 0 0 1 197.5503 98.2661)" fill="#FFFFFF" font-family="'MicrosoftYaHei'" font-size="29.348">沪太路立交</text>
<text transform="matrix(1 0 0 1 117.6519 246.7759)"><tspan x="0" y="0" fill="#FFFFFF" font-family="'MicrosoftYaHei'" font-size="29.348">南北</tspan><tspan x="-14.674" y="35.218" fill="#FFFFFF" font-family="'MicrosoftYaHei'" font-size="29.348">高架路</tspan></text>
<text transform="matrix(1 0 0 1 371 283.1099)" fill="#FFFFFF" font-family="'MicrosoftYaHei'" font-size="29.35">蕰川路</text>
<text transform="matrix(1 0 0 1 327.5 351.1094)" fill="#FFFFFF" font-family="'MicrosoftYaHei'" font-size="29.348">江杨北路</text>
<text transform="matrix(1 0 0 1 317 168.4448)" fill="#FFFFFF" font-family="'MicrosoftYaHei'" font-size="29.35">富长路</text>
<rect x="325.333" y="373.609" fill="#F5DD39" width="101.167" height="31"/>
<text transform="matrix(1 0 0 1 344.416 395.6094)" fill="#4A78B5" font-family="'MicrosoftYaHei'" font-size="21">小车道</text>
<rect x="139.833" y="422.609" fill="#F5DD39" width="286.667" height="83"/>
<text transform="matrix(1 0 0 1 230.6665 457.6094)"><tspan x="0" y="0" fill="#4A78B5" font-family="'MicrosoftYaHei'" font-size="21">行车不抛物</tspan><tspan x="0" y="25.201" fill="#4A78B5" font-family="'MicrosoftYaHei'" font-size="21">文明伴路途</tspan></text>
<path fill="none" stroke="#FFFFFF" stroke-width="3" stroke-miterlimit="10" d="M472.41,514.603c0,1.565-1.27,2.835-2.835,2.835
	H97.1c-1.565,0-2.834-1.27-2.834-2.835V51.397c0-1.565,1.269-2.834,2.834-2.834h372.476c1.565,0,2.835,1.269,2.835,2.834V514.603z"
	/>
<g id="roadmap-7" fill="#17BF00">
<rect x="263" y="187" width="16" height="26"/>
</g>
<g id="roadmap-8" fill="#17BF00">
<rect x="263" y="213" width="16" height="33.776"/>
</g>
<g id="roadmap-9" fill="#17BF00">
<rect x="263" y="246.776" width="16" height="55.224"/>
</g>
<g id="roadmap-10" fill="#17BF00">
<rect x="263" y="302" width="16" height="93.609"/>
</g>
</svg>
