<?xml version="1.0" encoding="UTF-8" standalone="no"?>
<!DOCTYPE svg PUBLIC "-//W3C//DTD SVG 1.1//EN" "http://www.w3.org/Graphics/SVG/1.1/DTD/svg11.dtd">
<svg
   xmlns:svg="http://www.w3.org/2000/svg"
   xmlns="http://www.w3.org/2000/svg"
   xmlns:xlink="http://www.w3.org/1999/xlink"
   version="1.1"
   width="400"
   height="300"
   viewBox="0 0 533.973 283.486"
   id="Layer_3_copy_2"
   xml:space="preserve"><defs
     id="defs3599"><linearGradient
       x1="265.748"
       y1="72.2827"
       x2="265.748"
       y2="212.353"
       id="SVGID_1_"
       gradientUnits="userSpaceOnUse"
       gradientTransform="matrix(0.9763,-0.2164,0.2164,0.9763,-26.4711,60.2204)"><stop
         id="stop3591"
         style="stop-color:#d1000d;stop-opacity:1"
         offset="0" /><stop
         id="stop3593"
         style="stop-color:#3d0000;stop-opacity:1"
         offset="1" /></linearGradient><linearGradient
       x1="265.748"
       y1="72.2827"
       x2="265.748"
       y2="212.353"
       id="linearGradient3609"
       xlink:href="#SVGID_1_"
       gradientUnits="userSpaceOnUse"
       gradientTransform="matrix(0.9763,-0.2164,0.2164,0.9763,-26.4711,60.2204)" /></defs><path
     d="M 38.783,269.784 C 28.834,263.718 22.974,252.992 22.945,241.597 l 0,0 c 0,-1.814 0.153,-3.643 0.465,-5.459 l 0,0 c 1.508,-8.576 6.269,-15.997 13.01,-20.936 l 0,0 c -2.542,-1.309 -4.987,-2.821 -7.307,-4.526 l 0,0 C 18.427,202.792 10.976,191.242 8.103,178.339 l 0,0 -1.561,-7.045 C 6.07,169.17 5.727,167.021 5.51,164.866 l 0,0 c -0.185,-1.822 -0.274,-3.64 -0.274,-5.445 l 0,0 c 0.006,-11.187 3.411,-22.21 9.87,-31.459 l 0,0 c 7.576,-10.809 18.967,-18.565 31.963,-21.458 l 0,0 114.41,-25.364 c 2.366,-0.526 4.753,-0.781 7.115,-0.781 l 0,0 c 9.201,0 18.109,3.874 24.411,10.876 l 0,0 1.238,1.377 c 0.04,0.042 0.08,0.088 0.128,0.135 l 0,0 0,0 0,0 c 0,0 0,0 0,0 l 0,0 c 0,0 0,0.01 0.01,0.015 l 0,0 c 0,0.01 0.01,0.015 0.02,0.022 l 0,0 c 0.02,0.017 0.04,0.038 0.06,0.061 l 0,0 c 0.09,0.098 0.229,0.242 0.408,0.427 l 0,0 c 0.355,0.372 0.869,0.907 1.519,1.582 l 0,0 c 1.298,1.353 3.144,3.271 5.395,5.607 l 0,0 c 4.503,4.67 10.628,11.01 17.272,17.852 l 0,0 c 10.449,10.762 22.213,22.798 30.859,31.443 l 0,0 c 1.323,-4.428 2.803,-9.482 4.343,-14.808 l 0,0 c 4.103,-14.194 8.638,-30.336 11.845,-41.963 l 0,0 c 2.13,-7.706 3.713,-13.597 4.082,-15.122 l 0,0 c 1.16,-4.8 3.024,-10.507 7.385,-15.628 l 0,0 -0.06,0.068 c 4.76,-5.659 11.221,-9.439 18.316,-10.956 l 0,0 169.77,-37.638 c 2.354,-0.525 4.73,-0.777 7.09,-0.777 l 0,0 c 5.954,0 11.844,1.605 17.028,4.736 l 0,0 c 9.946,6.066 15.806,16.79 15.836,28.187 l 0,0 c 0,1.799 -0.148,3.625 -0.463,5.46 l 0,0 c -1.041,5.918 -3.632,11.287 -7.354,15.668 l 0,0 c 7.835,4.41 13.841,11.964 16.002,21.435 l 0,0 10.937,49.325 c 0.51,2.315 0.758,4.649 0.758,6.954 l 0,0 c -0.06,15.104 -10.369,28.694 -25.712,32.196 l 0,0 -109.863,24.357 c -2.075,0.459 -4.19,0.799 -6.355,1.003 l 0,0 c -1.575,0.146 -3.16,0.221 -4.742,0.221 l 0,0 c -12.99,0 -25.379,-4.962 -34.971,-13.451 l 0,0 c -10.148,-9.012 -16.38,-20.891 -19.749,-32.976 l 0,0 -0.03,-0.106 -0.349,-1.383 -2.616,-11.686 c -2.185,7.699 -4.469,15.383 -6.884,23.041 l 0,0 c -3.671,11.616 -7.585,23.806 -13.36,35.593 l 0,0 c -2.6,5.28 -5.897,10.698 -10.523,15.438 l 0,0 c -4.592,4.721 -10.732,8.744 -18.258,10.431 l 0,0 -7.016,1.555 -0.102,0.02 c -2.71,0.579 -5.433,0.857 -8.124,0.857 l 0,0 c -10.503,-0.02 -20.275,-4.135 -27.634,-10.851 l 0,0 -0.04,-0.04 -0.06,-0.06 c -0.01,-0.01 -11.896,-11.198 -26.496,-25.162 l 0,0 c 0.176,1.786 0.266,3.576 0.266,5.365 l 0,0 c 0,11.185 -3.409,22.21 -9.87,31.464 l 0,0 c -7.576,10.811 -18.965,18.563 -31.961,21.46 l 0,0 -98.122,21.754 c -2.326,0.512 -4.694,0.767 -7.056,0.767 l 0,0 c -5.955,0 -11.844,-1.602 -17.031,-4.735 l 0,0 z m 120.3,-63.932 -106.038,23.507 c -4.834,1.017 -8.936,5.32 -9.722,10.201 l 0,0 c -0.114,0.678 -0.172,1.357 -0.172,2.037 l 0,0 c -0.03,4.315 2.39,8.703 6.089,10.899 l 0,0 c 1.946,1.179 4.265,1.818 6.572,1.816 l 0,0 c 0.907,0 1.82,-0.1 2.699,-0.293 l 0,0 98.105,-21.749 c 7.875,-1.729 15.116,-6.625 19.774,-13.312 l 0,0 c 4.031,-5.754 6.229,-12.83 6.223,-19.886 l 0,0 c 0,-1.141 -0.06,-2.284 -0.17,-3.414 l 0,0 c -0.138,-1.372 -0.356,-2.733 -0.654,-4.077 l 0,0 -1.565,-7.052 c -1.782,-8.103 -6.608,-15.558 -13.26,-20.437 l 0,0 c -5.727,-4.222 -12.814,-6.576 -19.829,-6.567 l 0,0 c -0.979,0 -1.952,0.04 -2.918,0.136 l 0,0 c -1.342,0.125 -2.681,0.335 -4.001,0.626 l 0,0 -38.921,8.629 -46.854,10.389 -5.463,-24.659 115.182,-25.536 3.942,4.28 c 5.843,6.351 17.994,18.364 30.68,30.651 l 0,0 c 12.71,12.314 26.061,25.021 34.699,33.212 l 0,0 c 5.623,5.328 9.233,8.729 9.415,8.898 l 0,0 c 3.71,3.378 8.883,5.482 13.891,5.459 l 0,0 c 1.298,0 2.598,-0.134 3.897,-0.412 l 0,0 -0.07,0.02 6.998,-1.551 c 3.169,-0.737 5.688,-2.279 8.239,-4.852 l 0,0 c 2.517,-2.553 4.845,-6.157 6.819,-10.201 l 0,0 c 4.933,-10.037 8.604,-21.252 12.23,-32.77 l 0,0 c 6.183,-19.6 11.535,-39.573 16.609,-59.689 l 0,0 1.524,-6.041 16.964,-3.766 13.337,59.553 0.211,0.843 c 2.557,9.157 7.147,17.426 13.649,23.162 l 0,0 c 6.041,5.354 13.782,8.379 21.573,8.372 l 0,0 c 0.949,0 1.907,-0.04 2.858,-0.134 l 0,0 c 1.283,-0.121 2.576,-0.327 3.868,-0.613 l 0,0 109.86,-24.355 c 5.622,-1.147 9.938,-6.784 9.879,-12.47 l 0,0 c 0,-0.86 -0.09,-1.729 -0.282,-2.591 l 0,0 -10.933,-49.313 c -1.146,-5.622 -6.786,-9.942 -12.472,-9.883 l 0,0 c -0.864,0 -1.725,0.091 -2.58,0.282 l 0,0 -1.1,-4.935 0,0 1.095,4.936 -83.639,18.542 c -4.837,1.017 -8.942,5.323 -9.726,10.203 l 0,0 c -0.115,0.673 -0.172,1.355 -0.172,2.037 l 0,0 c -0.03,4.313 2.392,8.704 6.096,10.9 l 0,0 c 1.94,1.179 4.258,1.818 6.563,1.816 l 0,0 c 0.911,0 1.82,-0.1 2.704,-0.293 l 0,0 71.309,-15.811 5.468,24.653 -102.117,22.639 -3.861,-5.594 c -1.965,-2.876 -2.893,-5.609 -3.554,-7.808 l 0,0 -0.1,-0.335 L 354.656,84.88 475.462,58.099 c 4.834,-1.017 8.938,-5.322 9.72,-10.195 l 0,0 c 0.116,-0.669 0.172,-1.351 0.172,-2.043 l 0,0 c 0.03,-4.314 -2.394,-8.708 -6.09,-10.898 l 0,0 c -1.945,-1.181 -4.265,-1.82 -6.567,-1.818 l 0,0 c -0.919,0 -1.822,0.1 -2.701,0.295 l 0,0 -169.826,37.649 -0.141,0.03 c -2.697,0.552 -5.337,2.128 -7.011,4.156 l 0,0 -0.06,0.068 c -1.353,1.591 -2.247,3.646 -3.131,7.285 l 0,0 c -0.479,1.962 -1.703,6.501 -3.462,12.907 l 0,0 c -1.75,6.37 -3.995,14.44 -6.395,22.956 l 0,0 c -4.81,17.046 -10.206,35.786 -13.528,46.346 l 0,0 c -0.964,3.05 -1.725,5.36 -2.397,7.128 l 0,0 -5.134,13.39 -10.88,-9.342 c -1.476,-1.271 -3.322,-3.026 -5.748,-5.384 l 0,0 c -2.406,-2.345 -5.308,-5.227 -8.542,-8.472 l 0,0 c -6.465,-6.491 -14.254,-14.435 -21.89,-22.27 l 0,0 C 196.576,124.21 181.965,109.02 179.881,106.832 l 0,0 c -0.04,-0.05 -0.08,-0.08 -0.106,-0.111 l 0,0 c -0.05,-0.05 -0.114,-0.103 -0.188,-0.171 l 0,0 c -0.353,-0.335 -0.892,-0.775 -1.776,-1.861 l 0,0 c -0.109,-0.157 -0.234,-0.321 -0.369,-0.504 l 0,0 c -2.377,-2.338 -5.567,-3.62 -8.849,-3.62 l 0,0 c -0.911,0 -1.825,0.1 -2.733,0.299 l 0,0 -114.422,25.369 c -7.872,1.725 -15.114,6.62 -19.772,13.309 l 0,0 c -4.033,5.751 -6.231,12.824 -6.223,19.88 l 0,0 c 0,1.145 0.055,2.281 0.17,3.417 l 0,0 c 0.138,1.366 0.357,2.734 0.656,4.083 l 0,0 1.561,7.045 c 1.784,8.104 6.608,15.558 13.262,20.437 l 0,0 c 5.724,4.225 12.81,6.575 19.827,6.567 l 0,0 c 0.97,0 1.952,-0.05 2.91,-0.134 l 0,0 c 1.359,-0.126 2.699,-0.336 4.012,-0.629 l 0,0 38.921,-8.63 46.853,-10.386 5.468,24.66 0,0 z"
     id="path3588"
     style="fill:#ffffff" /><path
     d="m 476.77,73.337 -83.641,18.542 c -8.921,1.979 -15.946,9.346 -17.493,18.354 -1.565,9.119 2.739,18.507 10.647,23.293 4.977,3.011 11.008,4.001 16.687,2.742 l 61.445,-13.622 1.092,4.924 -85.611,18.982 c -1.02,-1.477 -1.674,-3.212 -2.178,-4.923 l -10.99,-49.076 110.921,-24.59 c 8.921,-1.978 15.944,-9.345 17.492,-18.353 1.565,-9.118 -2.739,-18.507 -10.647,-23.292 -4.976,-3.01 -11.008,-4 -16.685,-2.742 L 297.948,61.234 c -4.901,1.033 -9.457,3.712 -12.677,7.56 -2.857,3.355 -4.237,7.237 -5.259,11.454 -1.821,7.508 -21.301,77.424 -25.396,88.102 -9.17,-7.873 -66.94,-67.945 -67.649,-68.728 -0.339,-0.374 -1.362,-1.128 -1.473,-1.629 -5.481,-6.093 -13.82,-8.764 -21.82,-6.99 L 49.255,116.369 c -10.435,2.309 -19.752,8.635 -25.869,17.383 -6.095,8.715 -8.889,19.518 -7.826,30.097 0.177,1.766 0.46,3.524 0.845,5.261 l 1.562,7.045 c 2.329,10.504 8.465,20.005 17.135,26.387 8.496,6.255 19.147,9.333 29.672,8.356 1.766,-0.166 3.522,-0.439 5.253,-0.824 l 38.921,-8.63 36.989,-8.199 1.093,4.932 -96.172,21.321 c -8.921,1.978 -15.944,9.344 -17.491,18.352 -1.566,9.12 2.738,18.508 10.647,23.295 4.976,3.009 11.007,4 16.684,2.742 l 98.104,-21.751 c 10.436,-2.313 19.751,-8.637 25.869,-17.385 6.093,-8.716 8.888,-19.52 7.825,-30.097 -0.177,-1.77 -0.46,-3.526 -0.844,-5.261 l -1.564,-7.047 c -2.327,-10.503 -8.465,-20.006 -17.136,-26.388 -8.496,-6.253 -19.147,-9.331 -29.67,-8.354 -1.766,0.164 -3.521,0.44 -5.252,0.824 l -38.921,8.629 -36.989,8.201 -1.093,-4.931 99.643,-22.092 c 16.505,17.923 75.307,73.281 75.307,73.281 6.958,6.373 17.007,9.677 26.821,7.563 l 7.045,-1.562 c 10.647,-2.413 17.321,-11.131 21.896,-20.455 5.354,-10.912 9.146,-22.615 12.796,-34.183 6.271,-19.881 11.671,-40.045 16.771,-60.256 l 1.036,-0.23 11.159,49.835 0.281,1.118 c 2.96,10.643 8.375,20.736 16.714,28.122 8.768,7.766 20.367,11.842 32.08,10.733 1.716,-0.162 3.42,-0.435 5.104,-0.808 l 109.861,-24.356 c 12.078,-2.677 19.951,-15.034 17.273,-27.112 L 503.88,90.612 C 501.206,78.535 488.848,70.659 476.77,73.337"
     id="path3595"
     style="fill:url(#linearGradient3609)" /></svg>
